<svg width="24" height="24" viewBox="0 0 24 24" fill="none" xmlns="http://www.w3.org/2000/svg">
<path d="M12.3125 22.625C9.54688 22.625 6.96875 21.5469 5 19.625C3.07812 17.6562 2 15.0781 2 12.3125C2 9.59375 3.07812 6.96875 5 5.04688C6.96875 3.07812 9.54688 2 12.3125 2C15.0781 2 17.6562 3.07812 19.625 5.04688C21.5469 6.96875 22.625 9.59375 22.625 12.3125C22.625 15.0781 21.5469 17.6562 19.625 19.625C17.6562 21.5469 15.0781 22.625 12.3125 22.625Z" fill="black"/>
<path d="M12.3125 21.1719C7.4375 21.1719 3.5 17.1875 3.5 12.3125C3.5 7.4375 7.4375 3.5 12.3125 3.5C17.1875 3.5 21.125 7.4375 21.125 12.3125C21.125 17.1875 17.1875 21.1719 12.3125 21.1719Z" fill="#00AEEF"/>
<path d="M12.3594 6.21875C12.2188 6.21875 12.0781 6.07812 12.0781 5.9375V4.76562C12.0781 4.625 12.2188 4.48438 12.3594 4.48438C12.5469 4.48438 12.6406 4.625 12.6406 4.76562V5.9375C12.6406 6.07812 12.5469 6.21875 12.3594 6.21875Z" fill="white"/>
<path d="M16.8594 8.14062C16.8125 8.14062 16.7188 8.09375 16.6719 8.04688C16.5781 7.95312 16.5781 7.76562 16.6719 7.67188L17.5156 6.82812C17.6094 6.73438 17.7969 6.73438 17.8906 6.82812C18.0312 6.92188 18.0312 7.10938 17.8906 7.25L17.0469 8.04688C17 8.09375 16.9531 8.14062 16.8594 8.14062Z" fill="white"/>
<path d="M19.8594 12.6875H18.6875C18.5469 12.6875 18.4062 12.5469 18.4062 12.4062C18.4062 12.2188 18.5469 12.125 18.6875 12.125H19.8594C20.0469 12.125 20.1406 12.2188 20.1406 12.4062C20.1406 12.5469 20.0469 12.6875 19.8594 12.6875Z" fill="white"/>
<path d="M17.6094 17.9844C17.5156 17.9844 17.4688 17.9844 17.4219 17.9375L16.5781 17.0938C16.4844 16.9531 16.4844 16.8125 16.5781 16.6719C16.6719 16.5781 16.8594 16.5781 17 16.6719L17.7969 17.5156C17.9375 17.6094 17.9375 17.7969 17.7969 17.9375C17.75 17.9844 17.7031 17.9844 17.6094 17.9844Z" fill="white"/>
<path d="M12.2656 20.1875C12.0781 20.1875 11.9844 20.0469 11.9844 19.9062V18.6875C11.9844 18.5469 12.0781 18.4062 12.2656 18.4062C12.4062 18.4062 12.5469 18.5469 12.5469 18.6875V19.9062C12.5469 20.0469 12.4062 20.1875 12.2656 20.1875Z" fill="white"/>
<path d="M6.92188 17.8906C6.82812 17.8906 6.78125 17.8906 6.73438 17.8438C6.59375 17.7031 6.59375 17.5156 6.73438 17.4219L7.53125 16.5781C7.67188 16.4844 7.85938 16.4844 7.95312 16.5781C8.04688 16.7188 8.04688 16.8594 7.95312 17L7.10938 17.8438C7.0625 17.8906 7.01562 17.8906 6.92188 17.8906Z" fill="white"/>
<path d="M5.9375 12.5469H4.76562C4.57812 12.5469 4.48438 12.4062 4.48438 12.2656C4.48438 12.125 4.57812 11.9844 4.76562 11.9844H5.9375C6.07812 11.9844 6.21875 12.125 6.21875 12.2656C6.21875 12.4062 6.07812 12.5469 5.9375 12.5469Z" fill="white"/>
<path d="M7.85938 8.04688C7.76562 8.04688 7.71875 8 7.625 7.95312L6.82812 7.15625C6.6875 7.01562 6.6875 6.82812 6.82812 6.73438C6.92188 6.64062 7.10938 6.64062 7.20312 6.73438L8.04688 7.57812C8.14062 7.67188 8.14062 7.85938 8.04688 7.95312C8 8 7.90625 8.04688 7.85938 8.04688Z" fill="white"/>
<path d="M9.80807 13.9273C9.76747 13.9039 9.75031 13.8399 9.70972 13.8164C9.63481 13.6649 9.68796 13.4791 9.81603 13.4448L11.4717 12.4521L11.8258 8.65121C11.8149 8.48255 11.9899 8.36705 12.1351 8.39676C12.3038 8.38589 12.3787 8.53739 12.3896 8.70605L12.0057 12.6522C11.9994 12.7568 11.9525 12.838 11.8885 12.8551L10.0814 13.9227C10.0173 13.9399 9.88926 13.9742 9.80807 13.9273Z" fill="white"/>
</svg>
