<svg width="24" height="24" viewBox="0 0 24 24" fill="none" xmlns="http://www.w3.org/2000/svg">
<g clip-path="url(#clip0_9193_1640)">
<path d="M19.7606 7.90326V15.9151C19.7603 16.0279 19.7294 16.1386 19.6713 16.2353C19.6132 16.332 19.53 16.4112 19.4306 16.4645L12.5963 20.0645C12.507 20.1116 12.4075 20.1362 12.3066 20.1362C12.2056 20.1362 12.1062 20.1116 12.0169 20.0645L5.1825 16.4645C5.08259 16.4116 4.99894 16.3325 4.94049 16.2358C4.88203 16.139 4.85097 16.0282 4.85063 15.9151V7.90326C4.85042 7.79009 4.88125 7.67903 4.93976 7.58217C4.99827 7.48531 5.08223 7.40635 5.1825 7.35388L12.0169 3.75201C12.1062 3.70491 12.2056 3.6803 12.3066 3.6803C12.4075 3.6803 12.507 3.70491 12.5963 3.75201L14.7619 4.89388L16.9313 6.03763L19.4306 7.35388C19.5304 7.40683 19.6138 7.48595 19.6719 7.58274C19.7301 7.67954 19.7607 7.79034 19.7606 7.90326Z" fill="#00AEEF"/>
<path d="M16.9313 6.03767L9.76688 9.66392C9.66433 9.71595 9.57818 9.79533 9.51796 9.89328C9.45773 9.99123 9.42577 10.1039 9.42563 10.2189V13.4327C9.42563 13.4946 9.40706 13.5551 9.37234 13.6064C9.33761 13.6577 9.28831 13.6974 9.2308 13.7204C9.17328 13.7434 9.1102 13.7487 9.04967 13.7355C8.98915 13.7223 8.93397 13.6913 8.89125 13.6464L8.27625 13.0052C8.23989 12.9667 8.19423 12.9381 8.14366 12.9224C8.09309 12.9066 8.03931 12.9041 7.9875 12.9152L7.58625 13.0014C7.54087 13.0114 7.49384 13.011 7.44861 13.0004C7.40339 12.9898 7.36113 12.9691 7.32496 12.9399C7.28879 12.9108 7.25962 12.8739 7.23962 12.8319C7.21961 12.79 7.20928 12.7441 7.20938 12.6977V9.0958C7.20955 8.98106 7.24154 8.86862 7.30178 8.77098C7.36202 8.67333 7.44816 8.5943 7.55063 8.54267L14.76 4.89392H14.7619L16.9313 6.03767Z" fill="white"/>
<path d="M7.74113 22.2978C7.70128 22.2979 7.6619 22.2894 7.62563 22.2729C7.33538 22.1416 7.04663 21.9963 6.76706 21.8403C6.73454 21.8225 6.70587 21.7983 6.68271 21.7694C6.65955 21.7404 6.64235 21.7071 6.63212 21.6714C6.62188 21.6357 6.6188 21.5984 6.62305 21.5615C6.62731 21.5247 6.63881 21.489 6.65691 21.4566C6.675 21.4242 6.69933 21.3958 6.72849 21.3728C6.75764 21.3499 6.79105 21.3329 6.82679 21.3229C6.86253 21.3129 6.89989 21.3101 6.93671 21.3146C6.97354 21.3192 7.00911 21.3309 7.04138 21.3493C7.30688 21.4974 7.58138 21.6358 7.857 21.7603C7.91561 21.7867 7.96338 21.8325 7.99234 21.8899C8.0213 21.9474 8.02971 22.013 8.01615 22.0758C8.0026 22.1387 7.96791 22.195 7.91786 22.2354C7.86782 22.2758 7.80544 22.2978 7.74113 22.2978ZM6.10556 21.3854C6.04959 21.3855 5.9949 21.3687 5.94863 21.3373C5.68388 21.1589 5.42363 20.9668 5.17538 20.7669C5.14659 20.7437 5.12265 20.7151 5.10491 20.6828C5.08718 20.6504 5.076 20.6148 5.07201 20.5781C5.06396 20.5039 5.08569 20.4296 5.13244 20.3714C5.17918 20.3133 5.24711 20.2761 5.32126 20.2681C5.39542 20.26 5.46974 20.2818 5.52788 20.3285C5.76431 20.519 6.01163 20.7013 6.26306 20.8711C6.31297 20.9048 6.35074 20.9537 6.37081 21.0105C6.39088 21.0672 6.39219 21.129 6.37456 21.1866C6.35692 21.2441 6.32127 21.2945 6.27285 21.3303C6.22442 21.3661 6.16579 21.3855 6.10556 21.3854ZM4.64681 20.2109C4.57453 20.2109 4.50504 20.183 4.45275 20.1331C4.22231 19.9132 3.99788 19.6805 3.78581 19.4413C3.76133 19.4136 3.74252 19.3814 3.73048 19.3465C3.71844 19.3116 3.71339 19.2746 3.71563 19.2378C3.72015 19.1633 3.75406 19.0937 3.80991 19.0442C3.86575 18.9948 3.93895 18.9695 4.01341 18.974C4.08787 18.9786 4.15748 19.0125 4.20694 19.0683C4.4085 19.2958 4.62169 19.5172 4.84088 19.7263C4.88151 19.765 4.90959 19.8151 4.92151 19.87C4.93344 19.9249 4.92865 19.9821 4.90777 20.0342C4.88689 20.0864 4.85088 20.1311 4.80437 20.1626C4.75786 20.1941 4.70298 20.2109 4.64681 20.2109ZM3.40575 18.8092C3.36209 18.8092 3.31902 18.799 3.27997 18.7795C3.24092 18.76 3.20695 18.7316 3.18075 18.6967C2.98988 18.4406 2.808 18.1736 2.63963 17.903C2.61753 17.8717 2.60206 17.8362 2.59417 17.7987C2.58628 17.7612 2.58613 17.7225 2.59374 17.685C2.60134 17.6474 2.61654 17.6118 2.63839 17.5804C2.66025 17.5489 2.6883 17.5222 2.72083 17.502C2.75336 17.4818 2.78968 17.4684 2.82757 17.4627C2.86545 17.457 2.9041 17.4591 2.94115 17.4689C2.97819 17.4786 3.01285 17.4959 3.04299 17.5195C3.07313 17.5432 3.09813 17.5727 3.11644 17.6064C3.27656 17.8636 3.44944 18.1173 3.63113 18.3609C3.66246 18.4027 3.68155 18.4524 3.68624 18.5044C3.69093 18.5564 3.68104 18.6087 3.65768 18.6554C3.63432 18.7021 3.59842 18.7414 3.55399 18.7689C3.50956 18.7963 3.45836 18.8109 3.40613 18.8109L3.40575 18.8092ZM2.41725 17.2196C2.36539 17.2196 2.31452 17.2053 2.27028 17.1782C2.22604 17.1512 2.19014 17.1124 2.16656 17.0662C2.02125 16.7816 1.88663 16.4878 1.76663 16.1924C1.75248 16.1582 1.74525 16.1215 1.74534 16.0844C1.74543 16.0474 1.75285 16.0107 1.76716 15.9765C1.78147 15.9423 1.8024 15.9113 1.82874 15.8852C1.85508 15.8591 1.88632 15.8385 1.92065 15.8246C1.95498 15.8106 1.99173 15.8036 2.02879 15.8039C2.06585 15.8042 2.10249 15.8118 2.1366 15.8263C2.17071 15.8408 2.20161 15.8619 2.22754 15.8883C2.25347 15.9148 2.27391 15.9462 2.28769 15.9806C2.40188 16.2618 2.52956 16.5401 2.66756 16.8104C2.68944 16.8533 2.69996 16.9011 2.69811 16.9492C2.69625 16.9972 2.68209 17.0441 2.65697 17.0851C2.63186 17.1262 2.59663 17.1601 2.55466 17.1836C2.51269 17.2072 2.46537 17.2195 2.41725 17.2196ZM1.71113 15.4861C1.65109 15.4862 1.59263 15.467 1.54428 15.4314C1.49594 15.3958 1.46025 15.3457 1.44244 15.2883C1.34756 14.9829 1.26488 14.6696 1.19663 14.3591C1.18176 14.2867 1.196 14.2113 1.23628 14.1493C1.27656 14.0873 1.33963 14.0436 1.41184 14.0278C1.48406 14.012 1.55961 14.0252 1.62214 14.0646C1.68468 14.104 1.72918 14.1665 1.746 14.2385C1.81088 14.5342 1.88944 14.8312 1.97981 15.1213C1.99293 15.1634 1.99595 15.208 1.98865 15.2515C1.98134 15.295 1.96391 15.3361 1.93775 15.3717C1.9116 15.4072 1.87746 15.436 1.83809 15.4559C1.79873 15.4758 1.75523 15.4862 1.71113 15.4861ZM1.30856 13.6574C1.24052 13.6574 1.17481 13.6326 1.12361 13.5878C1.07241 13.543 1.0392 13.4811 1.03013 13.4137C0.988501 13.0989 0.959626 12.7771 0.944438 12.4574C0.942672 12.4205 0.948193 12.3837 0.960685 12.3489C0.973176 12.3141 0.992394 12.2822 1.01724 12.2548C1.04209 12.2275 1.07208 12.2053 1.10549 12.1896C1.13891 12.1738 1.1751 12.1648 1.212 12.1631C1.24895 12.1606 1.28601 12.1657 1.32098 12.1778C1.35594 12.19 1.38811 12.2091 1.41555 12.234C1.443 12.2588 1.46516 12.2889 1.48073 12.3225C1.4963 12.3561 1.50496 12.3925 1.50619 12.4295C1.52081 12.7338 1.54819 13.0398 1.58794 13.3394C1.59329 13.3792 1.59006 13.4197 1.57847 13.4582C1.56687 13.4966 1.54717 13.5321 1.52071 13.5623C1.49424 13.5925 1.46161 13.6167 1.42502 13.6332C1.38843 13.6498 1.34872 13.6583 1.30856 13.6582V13.6574Z" fill="black" stroke="black" stroke-width="0.2"/>
<path d="M12.297 23.2743C10.6862 23.278 9.09336 22.9365 7.62563 22.2729C7.55889 22.2414 7.50719 22.185 7.48168 22.1158C7.45616 22.0466 7.45887 21.9701 7.48923 21.9028C7.51958 21.8356 7.57514 21.7829 7.64394 21.7563C7.71274 21.7296 7.78926 21.7311 7.857 21.7603C9.72574 22.6026 11.7955 22.8959 13.8247 22.606C15.8539 22.3161 17.7588 21.455 19.3169 20.1231C20.875 18.7912 22.0222 17.0436 22.6243 15.0843C23.2265 13.1249 23.2588 11.0347 22.7176 9.05764C22.1764 7.08058 21.084 5.29827 19.5678 3.9188C18.0517 2.53932 16.1744 1.61961 14.1552 1.26703C12.1359 0.914446 10.058 1.14355 8.16411 1.92759C6.27019 2.71163 4.63837 4.01825 3.45919 5.69491C3.41489 5.75232 3.35013 5.7904 3.27843 5.8012C3.20673 5.81201 3.13362 5.7947 3.07437 5.7529C3.01512 5.71109 2.97431 5.64802 2.96045 5.57684C2.9466 5.50567 2.96076 5.43189 3 5.37091C4.12287 3.77411 5.63808 2.49343 7.39963 1.65228C9.16118 0.811125 11.1097 0.437852 13.0574 0.568427C15.0051 0.699002 16.8863 1.32902 18.5198 2.39779C20.1534 3.46655 21.4841 4.93802 22.3837 6.67041C23.2834 8.4028 23.7217 10.3377 23.6565 12.2887C23.5912 14.2397 23.0245 16.141 22.0111 17.8093C20.9976 19.4777 19.5715 20.857 17.8703 21.8142C16.169 22.7714 14.2498 23.2742 12.2977 23.2743H12.297Z" fill="black" stroke="black" stroke-width="0.2"/>
<path d="M3.08456 6.48975C2.89891 6.4894 2.71941 6.42312 2.57809 6.30271C2.43677 6.18231 2.34282 6.01562 2.313 5.83237L2.079 4.37943C2.06922 4.30674 2.08822 4.23311 2.13195 4.17423C2.17568 4.11535 2.24068 4.07588 2.3131 4.06424C2.38551 4.05259 2.45961 4.0697 2.51959 4.11191C2.57958 4.15412 2.6207 4.21809 2.63419 4.29018L2.86875 5.74293C2.87824 5.80029 2.91001 5.85157 2.95714 5.88561C3.00427 5.91964 3.06295 5.93366 3.12038 5.92462L4.57313 5.69062C4.64581 5.68084 4.71945 5.69984 4.77833 5.74357C4.83721 5.7873 4.87668 5.8523 4.88832 5.92472C4.89996 5.99713 4.88286 6.07123 4.84065 6.13121C4.79844 6.1912 4.73447 6.23232 4.66238 6.24581L3.20963 6.47981C3.16827 6.48648 3.12645 6.4898 3.08456 6.48975Z" fill="black" stroke="black" stroke-width="0.2"/>
<path d="M19.8906 7.40486L19.8874 7.40017C19.8047 7.27629 19.6924 7.17493 19.5608 7.10524L17.0693 5.79274H17.0679L14.8976 4.64899H14.8959L12.7269 3.50524C12.5973 3.4367 12.4529 3.40088 12.3063 3.40088C12.1597 3.40088 12.0152 3.4367 11.8856 3.50524L5.05144 7.10524C4.91984 7.17503 4.80767 7.27645 4.725 7.40036L4.72331 7.40299C4.62364 7.55087 4.57024 7.72508 4.56994 7.90342V15.9144C4.56966 16.0787 4.61441 16.24 4.69933 16.3808C4.78424 16.5215 4.90608 16.6363 5.05163 16.7127L11.8856 20.314C12.0153 20.3824 12.1597 20.4181 12.3063 20.4181C12.4529 20.4181 12.5973 20.3824 12.7269 20.314L19.5608 16.7127C19.7063 16.6364 19.8282 16.5216 19.9132 16.3808C19.9981 16.2401 20.0429 16.0788 20.0426 15.9144V7.90342C20.0423 7.72586 19.9894 7.55238 19.8906 7.40486ZM12.4599 10.9092C12.4123 10.9332 12.3598 10.9456 12.3065 10.9456C12.2532 10.9456 12.2006 10.9332 12.153 10.9092L10.0412 9.84049L16.9288 6.35411L19.1486 7.52374L12.4599 10.9092ZM16.3187 6.03255L9.64013 9.41261C9.49093 9.48753 9.36557 9.60256 9.27813 9.74478C9.19069 9.887 9.14463 10.0508 9.14513 10.2177V13.4315C9.14514 13.4373 9.1434 13.4431 9.14013 13.4479C9.13686 13.4528 9.13221 13.4565 9.12677 13.4587C9.12134 13.4609 9.11538 13.4614 9.10966 13.4602C9.10394 13.4589 9.09872 13.456 9.09469 13.4517L8.48006 12.8101C8.40989 12.7374 8.32236 12.6838 8.22572 12.6542C8.12908 12.6247 8.02651 12.6203 7.92769 12.6414L7.52663 12.7278C7.52235 12.7287 7.51794 12.7286 7.5137 12.7276C7.50945 12.7266 7.5055 12.7246 7.5021 12.7219C7.49871 12.7191 7.49597 12.7156 7.49408 12.7117C7.4922 12.7078 7.49121 12.7035 7.49119 12.6991V9.09611C7.49092 9.03323 7.50823 8.97152 7.54117 8.91795C7.5741 8.86438 7.62134 8.82108 7.67756 8.79292L14.7572 5.20961L16.3187 6.03255ZM12.1478 4.00155C12.1966 3.97581 12.251 3.96237 12.3063 3.96237C12.3615 3.96237 12.4159 3.97581 12.4648 4.00155L14.1471 4.88805L7.42369 8.29099C7.3555 8.32575 7.29205 8.3691 7.23488 8.41999L5.46394 7.52355L12.1478 4.00155ZM5.31375 16.2149C5.259 16.1862 5.21314 16.1431 5.18115 16.0902C5.14915 16.0374 5.13224 15.9767 5.13225 15.9149V7.98611L6.951 8.90636C6.9369 8.96864 6.92948 9.03225 6.92888 9.09611V12.6985C6.92889 12.7868 6.94865 12.874 6.98671 12.9536C7.02477 13.0333 7.08016 13.1034 7.14883 13.1589C7.2175 13.2144 7.29771 13.2538 7.38358 13.2742C7.46945 13.2947 7.55882 13.2957 7.64513 13.2772L8.04619 13.1909C8.05111 13.1897 8.05629 13.1898 8.06115 13.1913C8.06601 13.1928 8.07037 13.1956 8.07375 13.1994L8.68875 13.841C8.77046 13.9263 8.87582 13.9852 8.99128 14.0101C9.10674 14.035 9.22701 14.0248 9.33662 13.9807C9.44622 13.9367 9.54014 13.8609 9.6063 13.7631C9.67245 13.6652 9.7078 13.5498 9.70781 13.4317V10.3019L11.8991 11.4108C11.9397 11.4311 11.9819 11.4481 12.0251 11.4618V19.7515L5.31375 16.2149ZM19.2986 16.2149L12.5874 19.7517V11.462C12.6309 11.4482 12.6733 11.4311 12.7142 11.4108L19.4801 7.9863V15.9144C19.4802 15.9763 19.4633 16.037 19.4313 16.09C19.3993 16.143 19.3534 16.1862 19.2986 16.2149Z" fill="black" stroke="black" stroke-width="0.3"/>
</g>
<defs>
<clipPath id="clip0_9193_1640">
<rect width="24" height="24" fill="white"/>
</clipPath>
</defs>
</svg>
